<svg xmlns="http://www.w3.org/2000/svg" viewBox="0 0 24 24" width="100%" height="100%">
  <path fill="currentColor" d="M11 2H13V20C13 21 14 22 14 22H10C10 22 11 21 11 20V2ZM12 4C11.5 4 11 4.5 11 5C11 5.5 11.5 6 12 6C12.5 6 13 5.5 13 5C13 4.5 12.5 4 12 4ZM12 8C11.5 8 11 8.5 11 9C11 9.5 11.5 10 12 10C12.5 10 13 9.5 13 9C13 8.5 12.5 8 12 8ZM12 12C11.5 12 11 12.5 11 13C11 13.5 11.5 14 12 14C12.5 14 13 13.5 13 13C13 12.5 12.5 12 12 12ZM12 16C11.5 16 11 16.5 11 17C11 17.5 11.5 18 12 18C12.5 18 13 17.5 13 17C13 16.5 12.5 16 12 16Z"/>
</svg>