<?xml version="1.0" standalone="no"?>
<!DOCTYPE svg PUBLIC "-//W3C//DTD SVG 20010904//EN"
 "http://www.w3.org/TR/2001/REC-SVG-20010904/DTD/svg10.dtd">
<svg version="1.0" xmlns="http://www.w3.org/2000/svg"
 width="1024.000000pt" height="1024.000000pt" viewBox="0 0 1024.000000 1024.000000"
 preserveAspectRatio="xMidYMid meet">
<metadata>
Created by potrace 1.16, written by Peter Selinger 2001-2019
</metadata>
<g transform="translate(0.000000,1024.000000) scale(0.100000,-0.100000)"
fill="currentColor" stroke="none">
<path d="M6402 8028 c-7 -7 -12 -24 -12 -38 0 -32 -59 -171 -84 -199 -27 -30
-13 -48 61 -82 37 -17 69 -32 71 -34 5 -5 -216 -536 -227 -548 -4 -4 -22 -1
-40 6 -28 12 -30 15 -17 27 19 15 21 71 4 88 -14 14 -47 15 -67 3 -7 -5 -17
-28 -21 -52 -5 -24 -22 -74 -38 -111 l-30 -66 -59 5 c-66 6 -114 -11 -134 -48
-11 -21 -15 -21 -76 -4 -10 3 5 -6 32 -19 55 -27 79 -33 51 -13 -17 12 -15 15
18 45 30 26 45 32 84 32 58 0 76 -11 67 -39 -5 -17 -14 -21 -50 -21 -33 0 -51
-6 -72 -26 l-28 -26 29 21 c27 20 85 28 99 15 3 -3 -6 -30 -20 -59 -14 -29
-23 -60 -20 -69 9 -24 41 -19 71 10 21 22 26 23 26 10 0 -10 -13 -31 -29 -47
-57 -57 -141 -28 -156 55 -4 20 -8 36 -9 36 -1 0 -44 18 -94 39 -51 22 -92 36
-92 32 0 -3 14 -12 30 -18 17 -6 29 -17 27 -25 -2 -7 -2 -10 0 -5 8 12 30 8
76 -14 37 -18 45 -28 55 -65 7 -27 21 -50 37 -60 31 -20 86 -22 119 -5 30 17
60 75 52 103 -4 16 53 193 70 216 3 4 74 -26 74 -31 0 -19 -43 -96 -53 -93 -7
1 -9 1 -5 -1 4 -3 0 -20 -9 -39 l-17 -34 32 -30 c18 -16 32 -25 32 -21 0 4 11
13 25 19 19 9 25 19 25 42 0 39 39 132 53 127 19 -6 30 -33 24 -58 -4 -14 -31
-63 -62 -109 -57 -89 -112 -206 -121 -262 -3 -20 3 -11 14 22 25 74 61 142
128 245 35 55 57 98 58 118 1 31 -3 34 -91 77 -86 42 -107 60 -84 74 13 8 171
-61 199 -86 14 -14 22 -33 22 -56 0 -68 -64 -280 -117 -387 -14 -27 -20 -45
-14 -39 21 20 89 189 116 288 36 133 36 173 -3 207 -16 14 -35 28 -41 30 -8 3
-4 21 12 59 14 30 66 154 117 275 51 121 102 227 112 236 11 8 19 24 17 35 -4
30 11 71 32 90 21 19 25 64 7 82 -7 7 -25 12 -41 12 -23 0 -31 -6 -40 -30 -6
-16 -14 -30 -18 -30 -3 0 -4 -10 -2 -22 7 -42 -9 -51 -53 -31 -21 9 -40 18
-42 19 -7 4 63 151 80 167 21 20 24 67 6 85 -7 7 -24 12 -38 12 -14 0 -31 -5
-38 -12z m68 -13 c15 -18 6 -61 -16 -69 -24 -9 -54 12 -54 37 0 43 44 63 70
32z m-30 -89 c0 -2 -15 -36 -33 -75 -29 -65 -34 -71 -50 -59 -17 13 -17 16 -1
53 9 22 22 55 30 73 12 29 16 32 34 22 11 -6 20 -12 20 -14z m138 -78 c16 -16
15 -38 -4 -59 -13 -14 -20 -16 -40 -7 -27 12 -30 29 -12 58 14 23 38 26 56 8z
m-103 -125 c52 -21 73 -39 58 -54 -7 -7 -39 2 -109 31 -110 46 -119 52 -111
74 6 14 14 13 64 -10 32 -14 76 -33 98 -41z m73 42 c2 -2 1 -13 -3 -24 -11
-37 -58 -20 -48 17 4 18 10 21 27 16 11 -4 23 -8 24 -9z m-57 -105 c5 0 9 -6
9 -12 0 -7 -48 -125 -106 -263 -58 -137 -110 -260 -115 -272 -7 -20 -12 -21
-33 -12 l-24 11 23 52 c51 114 196 461 201 483 4 16 11 22 21 19 8 -3 19 -6
24 -6z m-334 -437 c3 -8 0 -26 -6 -40 -9 -21 -16 -24 -39 -19 -23 5 -25 5 -11
-7 15 -11 11 -26 -40 -152 -67 -165 -75 -181 -97 -189 -33 -13 -36 11 -9 64
63 125 133 301 128 321 -11 41 59 61 74 22z m71 -191 c10 -7 9 -18 -7 -55 -21
-49 -26 -53 -50 -38 -11 7 -11 16 4 55 18 46 28 53 53 38z m-34 -124 c26 -42
-35 -75 -69 -38 -18 19 -18 21 0 40 22 24 53 23 69 -2z"/>
<path d="M6133 7578 c-13 -6 -23 -15 -23 -19 0 -4 12 -1 28 7 41 21 68 17 104
-15 67 -60 28 -166 -62 -166 -47 0 -79 27 -97 83 l-12 37 6 -35 c11 -65 50
-100 114 -100 22 0 41 10 66 35 33 33 35 39 30 81 -6 59 -39 94 -93 100 -21 2
-49 -1 -61 -8z"/>
<path d="M5658 6993 c6 -2 18 -2 25 0 6 3 1 5 -13 5 -14 0 -19 -2 -12 -5z"/>
<path d="M5626 6915 c-9 -26 -7 -32 5 -12 6 10 9 21 6 23 -2 3 -7 -2 -11 -11z"/>
<path d="M5644 6793 c-21 -49 -39 -90 -40 -91 -6 -10 -44 11 -44 24 0 10 -7 8
-26 -8 -18 -16 -23 -29 -19 -45 3 -14 1 -23 -6 -23 -7 0 -10 -3 -6 -6 8 -8
-31 -95 -54 -120 -10 -11 -19 -30 -19 -42 0 -35 -40 -125 -62 -140 -15 -11
-19 -22 -15 -42 3 -15 2 -31 -2 -36 -4 -5 -29 -61 -56 -124 -27 -63 -57 -123
-68 -133 -12 -11 -21 -33 -22 -58 -2 -25 -11 -49 -24 -63 -12 -12 -19 -25 -15
-28 9 -9 -36 -106 -52 -112 -8 -3 -14 -18 -14 -34 0 -16 -7 -35 -15 -42 -18
-15 -20 -61 -3 -78 17 -17 65 -15 72 4 10 25 7 29 -7 10 -26 -36 -84 4 -61 42
14 22 64 29 64 8 0 -8 5 -18 12 -22 8 -5 9 -2 5 10 -5 13 -3 17 5 13 7 -2 55
-21 105 -41 62 -24 109 -36 142 -36 27 0 78 -9 113 -20 72 -23 174 -36 212
-26 33 8 66 44 66 70 -1 16 -4 14 -15 -11 -26 -60 -86 -68 -212 -28 -43 14
-112 28 -153 31 -56 5 -103 18 -185 51 -126 51 -140 60 -125 78 8 9 37 1 127
-38 133 -57 164 -61 267 -28 40 12 97 21 140 22 62 1 67 2 36 10 -43 11 -101
4 -199 -23 -86 -23 -116 -20 -201 18 -46 20 -59 31 -55 43 3 9 20 51 38 94 29
73 33 78 57 72 35 -9 48 -22 55 -55 14 -64 94 -106 151 -78 93 45 87 170 -10
207 -34 13 -41 12 -80 -6 -37 -18 -46 -19 -72 -8 -62 28 -62 22 1 169 31 75
61 134 65 131 5 -3 -16 -62 -46 -131 -30 -70 -53 -128 -51 -130 2 -3 28 52 57
121 29 69 57 125 62 125 27 0 67 -32 73 -58 7 -33 49 -76 83 -87 32 -9 88 12
112 42 13 17 20 41 20 70 0 63 -40 103 -102 103 -24 0 -53 -7 -65 -15 -29 -20
-100 2 -95 31 2 16 1 16 -7 4 -5 -8 -13 -12 -16 -8 -8 8 35 108 46 108 12 0
11 -11 -6 -40 -8 -14 -14 -29 -14 -35 0 -5 9 7 20 28 11 20 22 37 25 37 14 0
132 -55 153 -71 25 -20 59 -17 73 5 24 35 -13 93 -52 83 -15 -4 -135 39 -169
60 -6 4 40 113 50 119 12 7 98 -32 103 -48 3 -7 7 -26 10 -41 8 -33 58 -67 99
-67 37 0 82 27 96 57 22 47 14 92 -23 129 -39 39 -75 44 -129 18 -33 -16 -37
-15 -85 7 l-50 24 39 89 c21 49 37 91 35 93 -2 2 -20 -36 -42 -84z m-22 -119
c81 -36 95 -38 154 -13 57 23 124 -26 124 -91 0 -58 -61 -109 -116 -96 -36 9
-74 50 -74 80 0 30 -20 45 -113 81 -72 29 -82 37 -73 60 7 20 7 20 98 -21z
m-68 -30 c21 -8 20 -18 -6 -81 -22 -53 -31 -60 -57 -44 -12 8 -11 19 10 70 24
63 27 65 53 55z m17 -175 c108 -46 111 -49 99 -69 -7 -12 -17 -11 -67 10 -133
54 -163 69 -163 84 0 25 29 19 131 -25z m-97 -22 c16 -12 16 -15 -5 -65 -19
-45 -25 -52 -43 -46 -12 4 -22 7 -23 8 -5 4 42 116 48 116 3 0 13 -6 23 -13z
m271 -30 c39 -29 -6 -89 -49 -65 -29 16 -14 78 19 78 6 0 19 -6 30 -13z m-265
-121 c63 -29 87 -32 114 -11 56 42 146 -7 146 -80 0 -51 -44 -95 -95 -95 -41
0 -95 44 -95 78 0 26 -22 43 -110 82 -90 40 -86 36 -71 54 14 16 20 15 111
-28z m-86 -22 c9 -3 16 -11 16 -18 0 -13 -99 -247 -110 -259 -3 -4 -14 -5 -24
-1 -13 5 -16 13 -11 31 6 26 106 253 110 253 2 0 10 -3 19 -6z m-74 -314 c77
-34 96 -36 124 -15 34 25 84 19 118 -15 27 -28 30 -36 25 -73 -15 -112 -157
-117 -187 -6 -8 29 -18 43 -38 50 -79 30 -142 63 -142 75 0 21 25 17 100 -16z
m-77 -99 c-13 -31 -31 -73 -40 -93 -13 -32 -18 -36 -34 -27 -10 5 -19 14 -19
19 0 5 18 48 40 95 36 79 41 85 59 74 19 -12 19 -14 -6 -68z m14 -46 c-22 -52
-43 -93 -45 -90 -7 6 69 185 78 185 5 0 -10 -43 -33 -95z"/>
<path d="M5596 6845 c-9 -26 -7 -32 5 -12 6 10 9 21 6 23 -2 3 -7 -2 -11 -11z"/>
<path d="M5572 6785 c-17 -37 -14 -45 4 -12 9 16 14 31 11 33 -2 2 -9 -7 -15
-21z"/>
<path d="M6092 6520 c0 -19 2 -27 5 -17 2 9 2 25 0 35 -3 9 -5 1 -5 -18z"/>
<path d="M6180 6510 c-12 -16 -19 -30 -16 -30 2 0 14 14 26 30 12 17 19 30 16
30 -2 0 -14 -13 -26 -30z"/>
<path d="M5352 6455 c0 -16 2 -22 5 -12 2 9 2 23 0 30 -3 6 -5 -1 -5 -18z"/>
<path d="M5341 6403 c-1 -6 -4 -20 -7 -30 -5 -17 -5 -17 6 0 6 10 9 23 6 30
-3 9 -5 9 -5 0z"/>
<path d="M5261 6234 c0 -11 3 -14 6 -6 3 7 2 16 -1 19 -3 4 -6 -2 -5 -13z"/>
<path d="M5845 6144 c-15 -20 -48 -49 -73 -65 -56 -36 -103 -37 -188 -8 -70
25 -97 21 -92 -13 7 -52 167 -94 258 -67 25 7 50 11 55 10 6 -1 7 1 3 5 -4 4
0 14 10 22 14 12 13 12 -8 -1 -51 -30 -130 -39 -193 -22 -92 24 -136 52 -109
69 5 3 40 -6 78 -19 38 -14 80 -25 95 -25 58 0 151 66 193 138 15 25 -2 11
-29 -24z"/>
<path d="M5151 6037 c-51 -57 -55 -63 -17 -27 41 39 94 101 84 100 -2 -1 -32
-33 -67 -73z"/>
<path d="M5791 5979 c-1 -9 7 -23 17 -30 15 -12 16 -12 6 1 -6 8 -14 22 -17
30 -5 13 -6 12 -6 -1z"/>
<path d="M5094 5816 c-27 -24 -57 -59 -67 -77 -16 -30 -16 -31 -1 -9 10 14 42
49 72 78 65 63 63 69 -4 8z"/>
<path d="M5761 5657 c19 -13 36 -22 39 -20 8 7 -41 43 -58 43 -8 0 0 -10 19
-23z"/>
<path d="M5304 5525 c-15 -23 -15 -27 0 -50 11 -17 26 -25 44 -25 35 0 52 16
52 50 0 34 -17 50 -52 50 -18 0 -33 -8 -44 -25z m76 -5 c22 -40 -26 -80 -58
-48 -25 25 -6 68 30 68 9 0 22 -9 28 -20z"/>
<path d="M5748 5503 c7 -3 16 -2 19 1 4 3 -2 6 -13 5 -11 0 -14 -3 -6 -6z"/>
<path d="M5668 5493 c7 -3 16 -2 19 1 4 3 -2 6 -13 5 -11 0 -14 -3 -6 -6z"/>
<path d="M5607 5479 c-68 -18 -96 -78 -97 -203 l0 -89 -25 27 c-13 14 -33 26
-44 26 -24 0 -52 -39 -49 -66 2 -10 -32 -102 -76 -204 -141 -334 -263 -623
-322 -765 -32 -77 -59 -141 -60 -143 -1 -1 -23 6 -49 16 -51 20 -68 40 -181
212 -62 93 -94 131 -139 163 -18 13 -5 -6 31 -45 34 -36 75 -90 92 -119 17
-30 51 -80 76 -112 55 -71 62 -98 39 -162 -43 -122 -169 -404 -180 -405 -7 0
-13 5 -13 11 0 6 36 98 80 204 44 107 83 207 86 223 8 38 -13 76 -70 130 -25
24 -46 51 -46 60 0 29 -58 91 -95 101 -36 10 -71 5 -93 -12 -9 -7 -23 -1 -49
24 -26 25 -33 28 -24 12 6 -13 20 -27 31 -33 11 -6 20 -17 20 -25 0 -20 -9
-19 -34 2 -18 15 -18 14 2 -8 14 -16 22 -38 22 -61 0 -32 12 -47 121 -155 105
-105 120 -124 114 -144 -4 -13 -30 -78 -57 -144 -28 -66 -54 -130 -59 -142 -7
-20 -12 -21 -33 -12 l-24 11 45 107 c73 172 73 183 10 249 -27 29 -207 131
-207 118 0 -3 41 -26 91 -52 99 -51 149 -103 149 -154 0 -20 -78 -230 -95
-258 -1 -1 -28 9 -60 23 -31 14 -59 24 -61 22 -3 -2 34 -22 81 -43 47 -21 85
-41 85 -44 0 -3 -4 -12 -9 -19 -8 -13 -23 -9 -95 22 -92 40 -124 48 -63 16 21
-11 35 -24 32 -28 -3 -5 3 -7 12 -5 10 2 24 0 32 -5 12 -8 3 -37 -48 -163 -35
-84 -72 -162 -82 -174 -27 -29 -24 -69 7 -91 l26 -19 -61 -143 c-34 -78 -61
-146 -61 -149 0 -4 -4 -13 -9 -20 -6 -10 -20 -8 -64 12 -56 24 -57 26 -59 68
l-1 43 -4 -37 c-2 -21 -6 -38 -7 -38 -2 0 -21 7 -42 16 -84 34 -10 -11 102
-63 133 -61 143 -68 126 -85 -8 -8 -42 3 -138 46 -69 31 -131 55 -136 54 -6
-2 33 -23 86 -47 53 -24 96 -47 96 -51 0 -4 -7 -13 -15 -20 -18 -15 -20 -61
-3 -78 31 -31 98 0 98 45 0 11 7 26 16 33 8 7 14 23 12 34 -2 19 164 438 183
460 4 4 27 1 51 -8 40 -16 44 -20 42 -49 -1 -29 -1 -29 3 -4 5 30 5 30 58 13
28 -9 -78 44 -153 77 -37 16 -62 33 -62 42 0 22 11 19 113 -23 96 -40 190 -68
114 -34 -24 11 -35 22 -32 31 4 10 2 11 -8 3 -9 -8 -24 -6 -55 8 l-42 19 45
107 c24 59 49 110 54 113 6 4 6 12 1 21 -5 8 -11 12 -13 10 -2 -3 -25 -60 -52
-127 -45 -115 -50 -121 -69 -111 -12 6 -22 12 -23 13 -2 1 20 55 48 121 28 65
55 129 60 142 8 22 10 22 38 7 16 -8 36 -13 43 -10 7 3 53 101 102 218 49 116
91 213 92 215 4 6 74 -32 74 -41 0 -22 -114 -278 -131 -293 -24 -21 -25 -67
-1 -85 14 -11 15 -11 5 1 -21 23 -16 71 7 77 11 3 20 10 20 17 0 8 107 271
115 284 1 1 14 -2 29 -7 51 -20 25 -2 -44 30 -50 23 -70 37 -70 50 0 11 2 19
5 19 2 0 38 -13 80 -30 88 -35 85 -34 85 -15 0 8 -6 12 -12 10 -7 -3 -19 -1
-27 4 -12 8 20 91 169 443 100 238 203 481 228 541 43 103 53 115 79 99 12 -8
10 -14 -151 -396 -52 -126 -94 -231 -92 -233 2 -2 25 47 51 109 26 62 77 181
112 263 36 83 74 173 84 202 16 42 49 90 49 70 0 -3 -56 -139 -125 -303 -69
-163 -124 -298 -122 -300 4 -4 221 502 261 608 20 51 25 82 23 139 -2 58 2 82
19 114 42 81 106 86 112 8 3 -45 3 -44 -133 -358 -48 -110 -100 -231 -115
-270 -16 -38 -45 -108 -64 -154 -20 -47 -34 -87 -31 -89 3 -3 5 0 5 7 0 8 7
11 18 6 13 -4 14 -3 6 5 -16 16 24 110 45 110 12 0 13 2 4 8 -9 6 25 97 129
337 150 352 166 404 132 448 -16 19 -24 22 -47 16z m-127 -300 c0 -33 -23 -48
-49 -32 -23 14 -26 54 -6 70 27 19 55 -1 55 -38z m-889 -872 c19 -13 33 -31
33 -40 -1 -9 2 -15 6 -12 11 6 20 -20 20 -55 0 -56 -75 -78 -137 -40 -39 24
-67 74 -59 106 16 63 78 81 137 41z m129 -164 c38 -43 42 -52 37 -88 -6 -54
-167 -437 -181 -432 -14 6 -19 -9 79 231 47 115 85 210 85 212 0 2 -3 3 -7 3
-20 -3 -34 3 -65 27 l-33 26 31 -30 c17 -16 37 -31 44 -34 10 -3 9 -15 -5 -51
l-18 -48 -18 28 c-10 15 -47 53 -81 84 l-62 56 47 0 c48 0 87 22 87 50 0 24
18 14 60 -34z m-216 -566 c17 -13 16 -19 -27 -119 -25 -59 -55 -116 -67 -128
-14 -14 -20 -29 -16 -43 7 -26 -28 -107 -46 -107 -33 0 -51 51 -25 67 8 4 45
83 83 176 37 92 71 167 74 167 3 0 14 -6 24 -13z m-63 -320 c15 -11 7 -35 -74
-230 -69 -165 -95 -217 -108 -217 -10 0 -20 4 -23 9 -4 5 21 74 54 153 34 78
75 178 93 221 18 42 34 77 37 77 3 0 12 -6 21 -13z m-231 -517 c0 -5 7 -7 15
-4 12 5 15 -2 15 -30 0 -30 -4 -37 -25 -42 -47 -12 -71 31 -38 68 18 20 33 24
33 8z"/>
<path d="M5735 5320 c-3 -6 1 -7 9 -4 18 7 21 14 7 14 -6 0 -13 -4 -16 -10z"/>
<path d="M5678 5273 c-20 -21 -41 -49 -47 -63 -10 -21 -10 -22 1 -6 7 11 30
39 52 63 47 53 43 57 -6 6z"/>
<path d="M4888 5263 c7 -3 16 -2 19 1 4 3 -2 6 -13 5 -11 0 -14 -3 -6 -6z"/>
<path d="M4990 5225 c56 -30 79 -31 125 -4 70 42 154 7 175 -72 21 -76 -36
-149 -116 -149 -57 0 -99 35 -116 98 -12 41 -19 50 -58 69 -104 51 -130 61
-130 48 0 -6 6 -12 13 -12 6 0 44 -15 83 -32 67 -31 72 -35 78 -70 10 -66 73
-121 138 -121 37 0 90 34 110 71 68 126 -65 249 -193 178 l-38 -22 -50 22
c-66 28 -77 26 -21 -4z"/>
<path d="M5592 5135 c-30 -62 -27 -71 4 -12 14 27 24 51 22 53 -3 2 -14 -17
-26 -41z"/>
<path d="M4846 5155 c-9 -26 -7 -32 5 -12 6 10 9 21 6 23 -2 3 -7 -2 -11 -11z"/>
<path d="M4896 5105 c-9 -26 -7 -32 5 -12 6 10 9 21 6 23 -2 3 -7 -2 -11 -11z"/>
<path d="M5649 5093 l-24 -28 28 24 c15 14 27 26 27 28 0 8 -8 1 -31 -24z"/>
<path d="M5556 5055 c-9 -26 -7 -32 5 -12 6 10 9 21 6 23 -2 3 -7 -2 -11 -11z"/>
<path d="M5605 5030 c-9 -16 -13 -30 -11 -30 3 0 12 14 21 30 9 17 13 30 11
30 -3 0 -12 -13 -21 -30z"/>
<path d="M4796 5035 c-9 -26 -7 -32 5 -12 6 10 9 21 6 23 -2 3 -7 -2 -11 -11z"/>
<path d="M4866 5035 c-9 -26 -7 -32 5 -12 6 10 9 21 6 23 -2 3 -7 -2 -11 -11z"/>
<path d="M4776 4985 c-9 -26 -7 -32 5 -12 6 10 9 21 6 23 -2 3 -7 -2 -11 -11z"/>
<path d="M5526 4985 c-9 -26 -7 -32 5 -12 6 10 9 21 6 23 -2 3 -7 -2 -11 -11z"/>
<path d="M4832 4955 c-17 -37 -14 -45 4 -12 9 16 14 31 11 33 -2 2 -9 -7 -15
-21z"/>
<path d="M5557 4935 c-24 -50 -20 -58 4 -12 11 22 19 41 17 43 -3 2 -12 -12
-21 -31z"/>
<path d="M4743 4920 c-13 -15 -23 -37 -23 -48 0 -11 -11 -45 -25 -77 -14 -32
-24 -59 -22 -62 3 -2 15 21 27 52 12 30 26 58 30 60 13 8 40 -6 40 -21 0 -14
-105 -273 -115 -282 -2 -3 -15 2 -29 11 -30 20 -60 3 -54 -33 2 -19 19 -30 84
-57 80 -33 82 -35 88 -75 8 -50 48 -92 103 -108 36 -11 46 -10 79 6 79 39 106
127 61 195 -45 68 -127 85 -189 39 -15 -11 -32 -20 -39 -20 -9 0 -76 28 -88
36 -9 7 43 114 53 111 6 -2 10 -13 8 -23 -2 -15 -1 -16 7 -4 8 12 12 12 28 -2
10 -10 27 -16 38 -16 11 1 64 -17 117 -40 54 -23 102 -42 108 -42 17 0 33 40
21 54 -6 6 -49 27 -97 46 -47 18 -101 44 -120 57 -19 12 -45 25 -59 29 -20 5
-25 2 -31 -20 -3 -14 -10 -24 -15 -21 -4 3 1 27 12 53 11 26 27 61 34 79 l13
31 45 -20 c41 -19 48 -27 64 -77 23 -71 63 -101 135 -101 41 0 54 5 84 33 31
28 37 42 41 83 12 120 -95 190 -201 133 -45 -24 -95 -20 -126 11 -10 10 -21
16 -23 13 -3 -3 -15 -2 -27 2 -15 5 -19 12 -15 26 8 25 4 23 -22 -11z m87 -51
l77 -32 56 28 c50 24 60 26 91 15 78 -26 113 -98 80 -167 -54 -109 -191 -88
-226 34 -14 48 -25 57 -120 98 -34 14 -58 31 -58 40 0 21 14 19 100 -16z m-21
-196 c14 -9 70 -36 125 -59 58 -25 102 -50 104 -59 5 -23 -19 -18 -120 25 -51
23 -101 39 -110 36 -10 -2 -29 5 -43 16 -20 16 -23 23 -15 39 13 23 28 24 59
2z m-130 -158 c43 -19 82 -35 85 -35 3 0 22 11 42 25 82 55 184 7 184 -88 0
-104 -98 -160 -181 -104 -26 17 -37 34 -46 71 -7 27 -15 51 -18 55 -3 3 -41
20 -83 36 -60 24 -78 35 -80 53 -4 29 3 28 97 -13z"/>
<path d="M4966 4824 c-56 -57 -20 -146 59 -146 51 0 85 33 85 84 0 80 -88 118
-144 62z m117 -16 c9 -11 17 -31 17 -45 0 -32 -42 -73 -75 -73 -28 0 -75 40
-75 64 0 73 87 109 133 54z"/>
<path d="M4656 4705 c-9 -26 -7 -32 5 -12 6 10 9 21 6 23 -2 3 -7 -2 -11 -11z"/>
<path d="M4626 4635 c-9 -26 -7 -32 5 -12 6 10 9 21 6 23 -2 3 -7 -2 -11 -11z"/>
<path d="M5226 4515 c-9 -26 -7 -32 5 -12 6 10 9 21 6 23 -2 3 -7 -2 -11 -11z"/>
<path d="M4404 4484 c-18 -14 -18 -14 6 -3 31 14 36 19 24 19 -6 0 -19 -7 -30
-16z"/>
<path d="M4468 4493 c7 -3 16 -2 19 1 4 3 -2 6 -13 5 -11 0 -14 -3 -6 -6z"/>
<path d="M4500 4486 c0 -2 7 -7 16 -10 8 -3 12 -2 9 4 -6 10 -25 14 -25 6z"/>
<path d="M5176 4475 c-9 -26 -7 -32 5 -12 6 10 9 21 6 23 -2 3 -7 -2 -11 -11z"/>
<path d="M5146 4405 c-9 -26 -7 -32 5 -12 6 10 9 21 6 23 -2 3 -7 -2 -11 -11z"/>
<path d="M5116 4335 c-9 -26 -7 -32 5 -12 6 10 9 21 6 23 -2 3 -7 -2 -11 -11z"/>
<path d="M4360 4336 c0 -2 7 -7 16 -10 8 -3 12 -2 9 4 -6 10 -25 14 -25 6z"/>
<path d="M5086 4265 c-9 -26 -7 -32 5 -12 6 10 9 21 6 23 -2 3 -7 -2 -11 -11z"/>
<path d="M4280 4177 c14 -16 34 -33 45 -39 21 -11 20 -10 -35 37 l-35 30 25
-28z"/>
<path d="M4668 3573 c5 -21 7 -23 10 -9 2 10 0 22 -6 28 -6 6 -7 0 -4 -19z"/>
<path d="M4360 3570 c-9 -6 -10 -10 -3 -10 6 0 15 5 18 10 8 12 4 12 -15 0z"/>
<path d="M4628 3523 c7 -3 16 -2 19 1 4 3 -2 6 -13 5 -11 0 -14 -3 -6 -6z"/>
<path d="M4034 2788 l-19 -23 23 19 c21 18 27 26 19 26 -2 0 -12 -10 -23 -22z"/>
<path d="M3168 1525 c17 -14 33 -25 37 -25 3 0 -7 11 -23 25 -17 14 -33 25
-37 25 -3 0 7 -11 23 -25z"/>
<path d="M3290 1446 c0 -3 9 -10 20 -16 11 -6 20 -8 20 -6 0 3 -9 10 -20 16
-11 6 -20 8 -20 6z"/>
<path d="M3420 1375 c0 -7 61 -37 66 -33 2 3 -12 12 -31 21 -19 9 -35 15 -35
12z"/>
<path d="M3520 1325 c14 -8 30 -14 35 -14 6 0 -1 6 -15 14 -14 8 -29 14 -35
14 -5 0 1 -6 15 -14z"/>
</g>
</svg>
